<svg width="148" height="24" viewBox="0 0 148 24" fill="none" xmlns="http://www.w3.org/2000/svg">
<g id="testcraft-logo">
<g id="testcraft-logo/text">
<path fill-rule="evenodd" clip-rule="evenodd" d="M3.23185 9.87233C1.05595 10.3166 -0.434213 7.74113 1.03935 6.08293C1.84009 5.18185 2.16895 3.95717 1.92699 2.7773C1.48172 0.606051 4.06276 -0.880927 5.72451 0.589487C6.62752 1.38852 7.85483 1.71667 9.03722 1.47523C11.2131 1.03091 12.7033 3.60643 11.2297 5.26463C10.429 6.1657 10.1001 7.39039 10.3421 8.57026C10.7874 10.7415 8.20632 12.2285 6.54456 10.7581C5.64156 9.95904 4.41425 9.63089 3.23185 9.87233ZM2.19866 7.10875C1.71304 7.65522 2.20413 8.504 2.92122 8.35757C4.58141 8.01857 6.30468 8.47933 7.57258 9.60124C8.12023 10.0858 8.97083 9.59578 8.82408 8.88023C8.48435 7.22358 8.9461 5.504 10.0704 4.23881C10.556 3.69234 10.0649 2.84356 9.34786 2.98998C7.68766 3.32899 5.9644 2.86823 4.69649 1.74632C4.14885 1.26173 3.29825 1.75178 3.44499 2.46733C3.78473 4.12397 3.32298 5.84355 2.19866 7.10875Z" fill="#06545E"/>
<path fill-rule="evenodd" clip-rule="evenodd" d="M1.99029 17.9019C0.434312 18.2196 -0.631296 16.3779 0.422442 15.1921C0.81067 14.7552 0.970112 14.1615 0.852801 13.5894C0.534394 12.0368 2.38008 10.9734 3.56839 12.0249C4.0062 12.4123 4.60125 12.5714 5.17451 12.4544C6.73049 12.1366 7.7961 13.9784 6.74236 15.1641C6.35413 15.601 6.19469 16.1948 6.312 16.7668C6.63041 18.3195 4.78472 19.3828 3.59641 18.3313C3.1586 17.9439 2.56356 17.7848 1.99029 17.9019ZM1.61593 16.384C1.62412 16.388 1.64099 16.395 1.67965 16.3871C2.73072 16.1725 3.82172 16.4642 4.62443 17.1745C4.65396 17.2006 4.6721 17.2029 4.68118 17.2036C4.69604 17.2046 4.71928 17.2012 4.7445 17.1866C4.76972 17.1721 4.78436 17.1538 4.79087 17.1404C4.79485 17.1322 4.80191 17.1154 4.794 17.0768C4.57891 16.028 4.87124 14.9393 5.58305 14.1383C5.60923 14.1089 5.61155 14.0908 5.6122 14.0817C5.61326 14.0669 5.60977 14.0437 5.59521 14.0185C5.58065 13.9933 5.56228 13.9787 5.54888 13.9722C5.54068 13.9683 5.52381 13.9612 5.48515 13.9691C4.43408 14.1837 3.34308 13.892 2.54037 13.1818C2.51085 13.1556 2.49271 13.1533 2.48362 13.1527C2.46876 13.1516 2.44552 13.1551 2.42031 13.1696C2.39509 13.1841 2.38045 13.2025 2.37394 13.2159C2.36995 13.224 2.36289 13.2409 2.3708 13.2794C2.58589 14.3283 2.29356 15.4169 1.58175 16.2179C1.55557 16.2474 1.55325 16.2655 1.5526 16.2746C1.55154 16.2894 1.55503 16.3126 1.56959 16.3377C1.58415 16.3629 1.60253 16.3775 1.61593 16.384Z" fill="#06545E"/>
<path d="M11.9525 14.7231C11.9525 14.2962 12.2994 13.95 12.7272 13.95H16.6009C17.0288 13.95 17.3756 14.2962 17.3756 14.7231C17.3756 15.1501 17.0288 15.4962 16.6009 15.4962H12.7272C12.2994 15.4962 11.9525 15.1501 11.9525 14.7231Z" fill="#06545E"/>
<path d="M12.7272 17.0423C12.2994 17.0423 11.9525 17.3885 11.9525 17.8154C11.9525 18.2424 12.2994 18.5885 12.7272 18.5885H19.6998C20.1277 18.5885 20.4745 18.2424 20.4745 17.8154C20.4745 17.3885 20.1277 17.0423 19.6998 17.0423H12.7272Z" fill="#06545E"/>
<path fill-rule="evenodd" clip-rule="evenodd" d="M16.6009 8.53853C12.3222 8.53853 8.8536 11.9997 8.8536 16.2693C8.8536 16.9127 8.93254 17.5388 9.08166 18.138L9.27961 19.7182C9.28077 19.7275 9.28058 19.7368 9.27904 19.7461L9.01339 21.3365C8.85959 22.2574 9.50475 23.1209 10.4331 23.2367L14.7281 23.7724C15.3286 23.9212 15.9561 24 16.6009 24C20.8796 24 24.3482 20.5388 24.3482 16.2693C24.3482 11.9997 20.8796 8.53853 16.6009 8.53853ZM10.4031 16.2693C10.4031 12.8536 13.1779 10.0847 16.6009 10.0847C20.0239 10.0847 22.7987 12.8536 22.7987 16.2693C22.7987 19.6849 20.0239 22.4539 16.6009 22.4539C16.069 22.4539 15.5538 22.3872 15.0629 22.2621L15.0157 22.2501L10.6253 21.7025C10.5707 21.6957 10.5327 21.6449 10.5418 21.5907L10.8074 20.0002C10.8336 19.8436 10.8368 19.684 10.8171 19.5264L10.6072 17.8511L10.5952 17.804C10.4699 17.3141 10.4031 16.8 10.4031 16.2693Z" fill="#06545E"/>
<path d="M34.6739 20.9058C33.9219 21.0625 33.1781 21.1243 32.4426 21.0913C31.7154 21.0584 31.0626 20.9017 30.4841 20.6213C29.9139 20.3409 29.4801 19.9039 29.1826 19.3102C28.9429 18.8154 28.8107 18.3165 28.7859 17.8135C28.7694 17.3022 28.7611 16.7209 28.7611 16.0695V3.83634H30.5709V15.9952C30.5709 16.556 30.575 17.026 30.5833 17.4053C30.5998 17.7764 30.6866 18.1062 30.8436 18.3949C31.1411 18.9473 31.6121 19.2772 32.2567 19.3844C32.9095 19.4916 33.7153 19.4669 34.6739 19.3102V20.9058ZM25.8977 9.10561V7.54709H34.6739V9.10561H25.8977Z" fill="#06545E"/>
<path d="M41.9962 21.2769C40.6905 21.2769 39.5584 20.9883 38.5998 20.411C37.6495 19.8338 36.9099 19.0216 36.381 17.9743C35.8521 16.927 35.5877 15.6984 35.5877 14.2883C35.5877 12.8287 35.848 11.5671 36.3686 10.5033C36.8892 9.43957 37.6205 8.61909 38.5626 8.04186C39.513 7.46463 40.6327 7.17602 41.9218 7.17602C43.2441 7.17602 44.3721 7.48112 45.3059 8.09134C46.2397 8.6933 46.9462 9.55914 47.4255 10.6889C47.9048 11.8186 48.1238 13.1668 48.0825 14.7336H46.2231V14.0904C46.1901 12.3587 45.8141 11.0517 45.0951 10.1694C44.3845 9.28702 43.3432 8.84585 41.9714 8.84585C40.5335 8.84585 39.4303 9.31176 38.6618 10.2436C37.9015 11.1754 37.5214 12.503 37.5214 14.2264C37.5214 15.9087 37.9015 17.2157 38.6618 18.1475C39.4303 19.071 40.517 19.5328 41.9218 19.5328C42.8804 19.5328 43.7151 19.3143 44.4258 18.8773C45.1447 18.432 45.7108 17.7929 46.124 16.96L47.8222 17.6156C47.2933 18.7783 46.5124 19.6812 45.4794 20.3244C44.4547 20.9594 43.2936 21.2769 41.9962 21.2769ZM36.8768 14.7336V13.2122H47.1032V14.7336H36.8768Z" fill="#06545E"/>
<path d="M55.333 21.2645C53.7629 21.2645 52.4696 20.9264 51.4531 20.2502C50.445 19.5741 49.8252 18.634 49.5938 17.4301L51.4531 17.1208C51.6515 17.8795 52.1019 18.4856 52.8043 18.9391C53.515 19.3844 54.3909 19.607 55.4322 19.607C56.4486 19.607 57.2502 19.3968 57.8369 18.9762C58.4237 18.5474 58.717 17.9661 58.717 17.2322C58.717 16.8198 58.622 16.4859 58.4319 16.2303C58.2501 15.9664 57.8741 15.7231 57.3039 15.5005C56.7337 15.2778 55.8825 15.0139 54.7504 14.7088C53.5356 14.379 52.5853 14.0492 51.8994 13.7193C51.2135 13.3895 50.7259 13.0101 50.4367 12.5813C50.1475 12.1443 50.0029 11.6124 50.0029 10.9857C50.0029 10.2271 50.2177 9.56327 50.6474 8.99428C51.0772 8.41706 51.6721 7.97177 52.4324 7.65841C53.1927 7.33682 54.0769 7.17602 55.0851 7.17602C56.0933 7.17602 56.994 7.34094 57.7873 7.67078C58.5889 7.99238 59.2335 8.44592 59.7211 9.03139C60.2086 9.61687 60.4979 10.2972 60.5888 11.0723L58.7294 11.4063C58.6055 10.6229 58.2129 10.0044 57.5518 9.5509C56.899 9.08911 56.0685 8.84998 55.0603 8.83348C54.11 8.80875 53.3373 8.99016 52.7423 9.37773C52.1473 9.75705 51.8498 10.2642 51.8498 10.8991C51.8498 11.2537 51.9572 11.5588 52.1721 11.8145C52.387 12.0618 52.7754 12.2969 53.3373 12.5195C53.9075 12.7421 54.7174 12.9854 55.7669 13.2493C56.9982 13.5626 57.965 13.8925 58.6674 14.2388C59.3699 14.5852 59.8698 14.9933 60.1673 15.4634C60.4648 15.9334 60.6136 16.5147 60.6136 17.2074C60.6136 18.4691 60.1425 19.4627 59.2004 20.1884C58.2666 20.9058 56.9775 21.2645 55.333 21.2645Z" fill="#06545E"/>
<path d="M70.1555 20.9058C69.4035 21.0625 68.6598 21.1243 67.9243 21.0913C67.1971 21.0584 66.5443 20.9017 65.9658 20.6213C65.3956 20.3409 64.9617 19.9039 64.6642 19.3102C64.4246 18.8154 64.2924 18.3165 64.2676 17.8135C64.2511 17.3022 64.2428 16.7209 64.2428 16.0695V3.83634H66.0526V15.9952C66.0526 16.556 66.0567 17.026 66.0649 17.4053C66.0815 17.7764 66.1682 18.1062 66.3253 18.3949C66.6228 18.9473 67.0938 19.2772 67.7384 19.3844C68.3912 19.4916 69.1969 19.4669 70.1555 19.3102V20.9058ZM61.3794 9.10561V7.54709H70.1555V9.10561H61.3794Z" fill="#06545E"/>
<path d="M77.3663 21.2769C76.0193 21.2769 74.8789 20.9759 73.9451 20.3739C73.0113 19.772 72.3006 18.9432 71.8131 17.8877C71.3338 16.824 71.0858 15.6035 71.0693 14.2264C71.0858 12.8246 71.342 11.5959 71.8378 10.5404C72.3337 9.47668 73.0485 8.65207 73.9823 8.0666C74.9161 7.47288 76.0482 7.17602 77.3787 7.17602C78.734 7.17602 79.9116 7.50586 80.9115 8.16555C81.9197 8.82524 82.6097 9.72819 82.9816 10.8744L81.1966 11.4434C80.8826 10.6435 80.3826 10.025 79.6967 9.58801C79.0191 9.14271 78.2423 8.92007 77.3663 8.92007C76.3829 8.92007 75.5689 9.14684 74.9244 9.60037C74.2798 10.0457 73.8005 10.6682 73.4865 11.4681C73.1724 12.268 73.0113 13.1874 73.003 14.2264C73.0196 15.8262 73.3914 17.1126 74.1187 18.0856C74.8459 19.0504 75.9284 19.5328 77.3663 19.5328C78.2753 19.5328 79.048 19.3267 79.6843 18.9144C80.3289 18.4938 80.8164 17.8836 81.147 17.0837L82.9816 17.628C82.4857 18.8154 81.7585 19.7225 80.7999 20.3492C79.8413 20.9676 78.6968 21.2769 77.3663 21.2769Z" fill="#06545E"/>
<path d="M85.0445 20.9058V7.54709H86.6807V10.7631L86.3584 10.3425C86.5072 9.94671 86.7014 9.58388 86.941 9.25404C87.1807 8.91595 87.441 8.6397 87.7219 8.4253C88.069 8.1202 88.4739 7.88931 88.9367 7.73263C89.3995 7.56771 89.8664 7.47288 90.3374 7.44814C90.8085 7.41515 91.2382 7.44814 91.6266 7.54709V9.25404C91.139 9.13035 90.606 9.10148 90.0275 9.16745C89.4491 9.23342 88.9161 9.46431 88.4285 9.86013C87.9823 10.2065 87.6476 10.6229 87.4244 11.1094C87.2013 11.5877 87.0526 12.0989 86.9782 12.6432C86.9038 13.1792 86.8666 13.7111 86.8666 14.2388V20.9058H85.0445Z" fill="#06545E"/>
<path d="M96.8041 21.2769C95.7959 21.2769 94.9489 21.0955 94.263 20.7326C93.5854 20.3698 93.0771 19.8874 92.7383 19.2854C92.3995 18.6835 92.2301 18.0279 92.2301 17.3187C92.2301 16.5931 92.3747 15.9746 92.6639 15.4634C92.9614 14.9439 93.3622 14.5192 93.8663 14.1893C94.3787 13.8595 94.9695 13.608 95.6389 13.4348C96.3165 13.2699 97.0644 13.1256 97.8825 13.0019C98.7089 12.87 99.5146 12.7586 100.3 12.6679C101.093 12.569 101.787 12.4741 102.382 12.3834L101.738 12.7793C101.762 11.4599 101.506 10.4827 100.969 9.84776C100.432 9.21281 99.4981 8.89533 98.1676 8.89533C97.2503 8.89533 96.4735 9.10148 95.8372 9.51379C95.2092 9.9261 94.7671 10.5775 94.5109 11.4681L92.7383 10.9486C93.0441 9.75293 93.6597 8.82524 94.5853 8.16555C95.5108 7.50586 96.7132 7.17602 98.1924 7.17602C99.4155 7.17602 100.453 7.40691 101.304 7.86869C102.163 8.32223 102.771 8.98191 103.126 9.84776C103.291 10.2353 103.399 10.6682 103.448 11.1465C103.498 11.6248 103.523 12.1113 103.523 12.6061V20.9058H101.899V17.5538L102.37 17.7517C101.915 18.8979 101.209 19.772 100.25 20.3739C99.2915 20.9759 98.1428 21.2769 96.8041 21.2769ZM97.0148 19.706C97.866 19.706 98.6097 19.5534 99.2461 19.2483C99.8824 18.9432 100.395 18.5268 100.783 17.999C101.172 17.463 101.424 16.8611 101.539 16.1931C101.638 15.7643 101.692 15.2943 101.7 14.7831C101.709 14.2636 101.713 13.876 101.713 13.6204L102.407 13.9791C101.787 14.0615 101.114 14.144 100.386 14.2264C99.6675 14.3089 98.9568 14.4037 98.2544 14.5109C97.5602 14.6181 96.9322 14.746 96.3703 14.8944C95.9901 15.0016 95.6224 15.1541 95.267 15.352C94.9117 15.5417 94.6183 15.7973 94.3869 16.1189C94.1638 16.4405 94.0523 16.8405 94.0523 17.3187C94.0523 17.7063 94.1473 18.0815 94.3374 18.4443C94.5357 18.8072 94.8497 19.1081 95.2794 19.3473C95.7174 19.5864 96.2959 19.706 97.0148 19.706Z" fill="#06545E"/>
<path d="M107.58 20.9058V6.55756C107.58 6.21122 107.597 5.86901 107.63 5.53092C107.671 5.19283 107.749 4.87123 107.865 4.56612C107.981 4.25277 108.163 3.96415 108.411 3.70028C108.683 3.40342 108.981 3.18902 109.303 3.05708C109.625 2.9169 109.96 2.82619 110.307 2.78496C110.662 2.74373 111.009 2.72311 111.348 2.72311H113.059V4.25689H111.472C110.778 4.25689 110.257 4.42594 109.91 4.76403C109.572 5.10212 109.402 5.63399 109.402 6.35965V20.9058H107.58ZM105.262 9.10561V7.54709H113.059V9.10561H105.262Z" fill="#06545E"/>
<path d="M121.835 20.9058C121.083 21.0625 120.339 21.1243 119.604 21.0913C118.876 21.0584 118.224 20.9017 117.645 20.6213C117.075 20.3409 116.641 19.9039 116.344 19.3102C116.104 18.8154 115.972 18.3165 115.947 17.8135C115.93 17.3022 115.922 16.7209 115.922 16.0695V3.83634H117.732V15.9952C117.732 16.556 117.736 17.026 117.744 17.4053C117.761 17.7764 117.848 18.1062 118.005 18.3949C118.302 18.9473 118.773 19.2772 119.418 19.3844C120.071 19.4916 120.876 19.4669 121.835 19.3102V20.9058ZM113.059 9.10561V7.54709H121.835V9.10561H113.059Z" fill="#06545E"/>
<path d="M136.48 21.1532C135.472 21.1532 134.625 20.9718 133.939 20.6089C133.262 20.2461 132.753 19.7637 132.415 19.1618C132.076 18.5598 131.906 17.9042 131.906 17.1951C131.906 16.4694 132.051 15.8509 132.34 15.3397C132.638 14.8202 133.038 14.3955 133.543 14.0657C134.055 13.7358 134.646 13.4843 135.315 13.3111C135.993 13.1462 136.741 13.0019 137.559 12.8782C138.385 12.7463 139.191 12.635 139.976 12.5442C140.769 12.4453 141.463 12.3505 142.058 12.2598L141.414 12.6556C141.439 11.3362 141.182 10.359 140.645 9.72407C140.108 9.08912 139.174 8.77165 137.844 8.77165C136.927 8.77165 136.15 8.9778 135.513 9.3901C134.885 9.80241 134.443 10.4539 134.187 11.3444L132.415 10.8249C132.72 9.62924 133.336 8.70155 134.262 8.04186C135.187 7.38218 136.389 7.05233 137.869 7.05233C139.092 7.05233 140.129 7.28322 140.98 7.74501C141.839 8.19854 142.447 8.85823 142.802 9.72407C142.967 10.1116 143.075 10.5446 143.124 11.0228C143.174 11.5011 143.199 11.9876 143.199 12.4824V20.7821H141.575V17.4301L142.046 17.628C141.591 18.7742 140.885 19.6483 139.926 20.2502C138.968 20.8522 137.819 21.1532 136.48 21.1532ZM136.691 19.5823C137.542 19.5823 138.286 19.4297 138.922 19.1246C139.559 18.8195 140.071 18.4031 140.459 17.8754C140.848 17.3394 141.1 16.7374 141.215 16.0695C141.315 15.6407 141.368 15.1706 141.377 14.6594C141.385 14.1399 141.389 13.7523 141.389 13.4967L142.083 13.8554C141.463 13.9378 140.79 14.0203 140.063 14.1028C139.344 14.1852 138.633 14.2801 137.931 14.3873C137.236 14.4945 136.608 14.6223 136.046 14.7707C135.666 14.8779 135.299 15.0304 134.943 15.2284C134.588 15.418 134.295 15.6736 134.063 15.9952C133.84 16.3168 133.729 16.7168 133.729 17.1951C133.729 17.5826 133.824 17.9578 134.014 18.3206C134.212 18.6835 134.526 18.9845 134.956 19.2236C135.394 19.4627 135.972 19.5823 136.691 19.5823Z" fill="#06545E"/>
<path d="M146.178 4.88773V2.84681H148V4.88773H146.178ZM146.178 20.7821V7.42341H148V20.7821H146.178Z" fill="#06545E"/>
<path d="M128.605 14.3019C128.605 15.3692 127.738 16.2345 126.668 16.2345C125.599 16.2345 124.732 15.3692 124.732 14.3019C124.732 13.2345 125.599 12.3692 126.668 12.3692C127.738 12.3692 128.605 13.2345 128.605 14.3019Z" fill="#06545E"/>
</g>
</g>
</svg>
