<svg width="82" height="62" viewBox="0 0 82 62" fill="none" xmlns="http://www.w3.org/2000/svg">
<g clip-path="url(#clip0_191_7878)">
<rect width="82" height="62" rx="8" fill="#E8EAE5" fill-opacity="0.3"/>
<g opacity="0.9">
<rect x="19.1855" y="22.4872" width="58.5846" height="48.1231" rx="4.88205" fill="#C9DBDD" fill-opacity="0.3"/>
<path d="M73.9333 66.7744V24.9282M15 50.7333V24.9282M15 53.1744V58.4051M73.9333 24.9282V24.9282C73.9333 21.6541 71.2792 19 68.0051 19H20.9282C17.6541 19 15 21.6541 15 24.9282V24.9282M73.9333 24.9282H15M24.0667 43.4103H43.5949C44.7504 43.4103 45.6872 42.4735 45.6872 41.3179V32.9487C45.6872 31.7932 44.7504 30.8564 43.5949 30.8564H24.0667C22.9111 30.8564 21.9744 31.7932 21.9744 32.9487V41.3179C21.9744 42.4735 22.9111 43.4103 24.0667 43.4103ZM24.0667 59.4513H51.2667C52.4222 59.4513 53.359 58.5145 53.359 57.359V48.9897C53.359 47.8342 52.4222 46.8974 51.2667 46.8974H24.0667C22.9111 46.8974 21.9744 47.8342 21.9744 48.9897V57.359C21.9744 58.5145 22.9111 59.4513 24.0667 59.4513ZM50.5692 43.4103H65.2154C66.3709 43.4103 67.3077 42.4735 67.3077 41.3179V32.9487C67.3077 31.7932 66.3709 30.8564 65.2154 30.8564H50.5692C49.4137 30.8564 48.4769 31.7932 48.4769 32.9487V41.3179C48.4769 42.4735 49.4137 43.4103 50.5692 43.4103ZM58.241 59.4513H65.2154C66.3709 59.4513 67.3077 58.5145 67.3077 57.359V48.9897C67.3077 47.8342 66.3709 46.8974 65.2154 46.8974H58.241C57.0855 46.8974 56.1487 47.8342 56.1487 48.9897V57.359C56.1487 58.5145 57.0855 59.4513 58.241 59.4513Z" stroke="#4D7C0F" stroke-width="1.39487"/>
</g>
</g>
<defs>
<clipPath id="clip0_191_7878">
<rect width="82" height="62" rx="8" fill="white"/>
</clipPath>
</defs>
</svg>
