<svg width="82" height="62" viewBox="0 0 82 62" fill="none" xmlns="http://www.w3.org/2000/svg">
<g clip-path="url(#clip0_191_7881)">
<rect width="82" height="62" rx="8" fill="#EAE7E9" fill-opacity="0.3"/>
<g opacity="0.9">
<rect x="19.1855" y="22.4872" width="58.5846" height="48.1231" rx="4.88205" fill="#C9DBDD" fill-opacity="0.3"/>
<path d="M73.9333 66.7744V24.9282M15 50.7333V24.9282M15 53.1744V58.4051M73.9333 24.9282V24.9282C73.9333 21.6541 71.2792 19 68.0051 19H20.9282C17.6541 19 15 21.6541 15 24.9282V24.9282M73.9333 24.9282H15M21.9744 42.0154H40.1077C41.6484 42.0154 42.8974 40.7664 42.8974 39.2256V33.6462C42.8974 32.1054 41.6484 30.8564 40.1077 30.8564H21.9744C20.4336 30.8564 19.1846 32.1054 19.1846 33.6462V39.2256C19.1846 40.7664 20.4336 42.0154 21.9744 42.0154ZM47.7795 35.041H67.3077C68.4632 35.041 69.4 34.1043 69.4 32.9487C69.4 31.7932 68.4632 30.8564 67.3077 30.8564H47.7795C46.6239 30.8564 45.6872 31.7932 45.6872 32.9487C45.6872 34.1043 46.6239 35.041 47.7795 35.041ZM47.7795 42.0154H61.7282C62.8838 42.0154 63.8205 41.0786 63.8205 39.9231C63.8205 38.7675 62.8838 37.8308 61.7282 37.8308H47.7795C46.6239 37.8308 45.6872 38.7675 45.6872 39.9231C45.6872 41.0786 46.6239 42.0154 47.7795 42.0154ZM21.9744 59.4513H40.1077C41.6484 59.4513 42.8974 58.2023 42.8974 56.6615V48.2923C42.8974 46.7516 41.6484 45.5026 40.1077 45.5026H21.9744C20.4336 45.5026 19.1846 46.7516 19.1846 48.2923V56.6615C19.1846 58.2023 20.4336 59.4513 21.9744 59.4513Z" stroke="#A21CAF" stroke-width="1.39487"/>
</g>
</g>
<defs>
<clipPath id="clip0_191_7881">
<rect width="82" height="62" rx="8" fill="white"/>
</clipPath>
</defs>
</svg>
