<svg width="56" height="56" viewBox="0 0 56 56" fill="none" xmlns="http://www.w3.org/2000/svg">
<circle cx="28" cy="28" r="28" fill="#F0F2F5"/>
<path d="M21.0003 25.0833C21.0003 21.5394 23.8732 18.6666 27.417 18.6666C30.5562 18.6666 33.171 20.922 33.7252 23.901C33.8029 24.3188 34.1016 24.6613 34.5049 24.795C36.8275 25.5653 38.5003 27.7554 38.5003 30.3333C38.5003 33.5549 35.8887 36.1666 32.667 36.1666C32.0227 36.1666 31.5003 36.6889 31.5003 37.3333C31.5003 37.9776 32.0227 38.4999 32.667 38.4999C37.1773 38.4999 40.8337 34.8436 40.8337 30.3333C40.8337 26.9587 38.7876 24.0647 35.871 22.8194C34.873 19.0843 31.4674 16.3333 27.417 16.3333C22.5845 16.3333 18.667 20.2508 18.667 25.0833C18.667 25.2002 18.6693 25.3168 18.6739 25.4327C16.5792 26.6412 15.167 28.9046 15.167 31.4999C15.167 35.3659 18.301 38.4999 22.167 38.4999C22.8113 38.4999 23.3337 37.9776 23.3337 37.3333C23.3337 36.6889 22.8113 36.1666 22.167 36.1666C19.5897 36.1666 17.5003 34.0772 17.5003 31.4999C17.5003 29.5664 18.6765 27.9048 20.3571 27.1969C20.8434 26.992 21.1316 26.4862 21.0601 25.9634C21.0207 25.6762 21.0003 25.3824 21.0003 25.0833Z" fill="#475367"/>
<path d="M27.2252 30.6279C27.6673 30.235 28.3334 30.235 28.7754 30.6279L30.5254 32.1835C31.007 32.6116 31.0504 33.349 30.6223 33.8306C30.2478 34.2519 29.6366 34.3378 29.167 34.0661V39.6666C29.167 40.3109 28.6447 40.8333 28.0003 40.8333C27.356 40.8333 26.8337 40.3109 26.8337 39.6666V34.0661C26.3641 34.3378 25.7528 34.2519 25.3783 33.8306C24.9503 33.349 24.9937 32.6116 25.4752 32.1835L27.2252 30.6279Z" fill="#475367"/>
</svg>
