<svg width="82" height="62" viewBox="0 0 82 62" fill="none" xmlns="http://www.w3.org/2000/svg">
<g clip-path="url(#clip0_191_7879)">
<rect width="82" height="62" rx="8" fill="#E6EAEA" fill-opacity="0.3"/>
<g opacity="0.9">
<rect x="19.1855" y="22.4872" width="58.5846" height="48.1231" rx="4.88205" fill="#C9DBDD" fill-opacity="0.3"/>
<path d="M73.9333 66.7744V24.9282M15 50.7333V24.9282M15 53.1744V58.4051M73.9333 24.9282V24.9282C73.9333 21.6541 71.2792 19 68.0051 19H20.9282C17.6541 19 15 21.6541 15 24.9282V24.9282M73.9333 24.9282H15M21.9744 35.7385H49.8718C51.0273 35.7385 51.9641 34.8017 51.9641 33.6462C51.9641 32.4906 51.0273 31.5538 49.8718 31.5538H21.9744C20.8188 31.5538 19.8821 32.4906 19.8821 33.6462C19.8821 34.8017 20.8188 35.7385 21.9744 35.7385ZM21.9744 46.2H49.8718C51.0273 46.2 51.9641 45.2632 51.9641 44.1077C51.9641 42.9521 51.0273 42.0154 49.8718 42.0154H21.9744C20.8188 42.0154 19.8821 42.9521 19.8821 44.1077C19.8821 45.2632 20.8188 46.2 21.9744 46.2ZM21.9744 56.6615H49.8718C51.0273 56.6615 51.9641 55.7248 51.9641 54.5692C51.9641 53.4137 51.0273 52.4769 49.8718 52.4769H21.9744C20.8188 52.4769 19.8821 53.4137 19.8821 54.5692C19.8821 55.7248 20.8188 56.6615 21.9744 56.6615Z" stroke="#0E7490" stroke-width="1.39487"/>
<path d="M62.7752 34.858L60.4363 37.1969C60.3487 37.2845 60.2374 37.3282 60.1021 37.3282C59.9669 37.3282 59.8555 37.2845 59.768 37.1969C59.6805 37.1094 59.6367 36.9981 59.6367 36.8628C59.6367 36.7276 59.6805 36.6162 59.768 36.5287L62.1069 34.1897L59.768 31.8508C59.6805 31.7633 59.6367 31.6519 59.6367 31.5167C59.6367 31.3814 59.6805 31.2701 59.768 31.1826C59.8555 31.095 59.9669 31.0513 60.1021 31.0513C60.2374 31.0513 60.3487 31.095 60.4363 31.1826L62.7752 33.5215L65.1141 31.1826C65.2016 31.095 65.313 31.0513 65.4482 31.0513C65.5835 31.0513 65.6949 31.095 65.7824 31.1826C65.8699 31.2701 65.9136 31.3814 65.9136 31.5167C65.9136 31.6519 65.8699 31.7633 65.7824 31.8508L63.4434 34.1897L65.7824 36.5287C65.8699 36.6162 65.9136 36.7276 65.9136 36.8628C65.9136 36.9981 65.8699 37.1094 65.7824 37.1969C65.6949 37.2845 65.5835 37.3282 65.4482 37.3282C65.313 37.3282 65.2016 37.2845 65.1141 37.1969L62.7752 34.858Z" fill="#0E7490"/>
<path fill-rule="evenodd" clip-rule="evenodd" d="M66.4407 41.7324C66.5487 41.8404 66.6093 41.9868 66.6093 42.1395C66.6093 42.2921 66.5487 42.4385 66.4407 42.5465L62.1257 46.8615C62.0687 46.9186 62.001 46.9638 61.9265 46.9947C61.8519 47.0255 61.7721 47.0414 61.6914 47.0414C61.6108 47.0414 61.5309 47.0255 61.4564 46.9947C61.3819 46.9638 61.3142 46.9186 61.2572 46.8615L59.1133 44.718C59.0583 44.6649 59.0144 44.6014 58.9842 44.5311C58.9541 44.4609 58.9382 44.3854 58.9375 44.3089C58.9369 44.2325 58.9514 44.1567 58.9804 44.0859C59.0093 44.0152 59.0521 43.9509 59.1061 43.8968C59.1602 43.8428 59.2244 43.8 59.2952 43.7711C59.366 43.7421 59.4418 43.7276 59.5182 43.7282C59.5946 43.7289 59.6702 43.7448 59.7404 43.775C59.8107 43.8051 59.8742 43.849 59.9273 43.904L61.6912 45.6679L65.6263 41.7324C65.6798 41.6789 65.7433 41.6365 65.8131 41.6075C65.883 41.5786 65.9579 41.5637 66.0335 41.5637C66.1092 41.5637 66.1841 41.5786 66.2539 41.6075C66.3238 41.6365 66.3873 41.6789 66.4407 41.7324Z" fill="#0E7490"/>
<path fill-rule="evenodd" clip-rule="evenodd" d="M66.4407 52.8914C66.5487 52.9994 66.6093 53.1458 66.6093 53.2984C66.6093 53.4511 66.5487 53.5975 66.4407 53.7055L62.1257 58.0205C62.0687 58.0775 62.001 58.1228 61.9265 58.1537C61.8519 58.1845 61.7721 58.2004 61.6914 58.2004C61.6108 58.2004 61.5309 58.1845 61.4564 58.1537C61.3819 58.1228 61.3142 58.0775 61.2572 58.0205L59.1133 55.877C59.0583 55.8239 59.0144 55.7604 58.9842 55.6901C58.9541 55.6199 58.9382 55.5443 58.9375 55.4679C58.9369 55.3915 58.9514 55.3157 58.9804 55.2449C59.0093 55.1741 59.0521 55.1099 59.1061 55.0558C59.1602 55.0018 59.2244 54.959 59.2952 54.9301C59.366 54.9011 59.4418 54.8866 59.5182 54.8872C59.5946 54.8879 59.6702 54.9038 59.7404 54.9339C59.8107 54.9641 59.8742 55.008 59.9273 55.063L61.6912 56.8269L65.6263 52.8914C65.6798 52.8379 65.7433 52.7955 65.8131 52.7665C65.883 52.7376 65.9579 52.7227 66.0335 52.7227C66.1092 52.7227 66.1841 52.7376 66.2539 52.7665C66.3238 52.7955 66.3873 52.8379 66.4407 52.8914Z" fill="#0E7490"/>
</g>
</g>
<defs>
<clipPath id="clip0_191_7879">
<rect width="82" height="62" rx="8" fill="white"/>
</clipPath>
</defs>
</svg>
